<svg width="88" height="88" viewBox="0 0 88 88" fill="none" xmlns="http://www.w3.org/2000/svg">
<g id="&#208;&#157;&#208;&#176;&#208;&#178;&#209;&#139;&#208;&#186;&#208;&#184;">
<path id="Vector" d="M77.5562 41.5057L77.6399 42.1097C78.6994 49.7557 77.3307 57.5414 73.727 64.3677C70.1232 71.194 64.4666 76.716 57.5555 80.1543C50.6444 83.5925 42.8279 84.7733 35.2096 83.5299C27.5913 82.2866 20.5559 78.6819 15.0966 73.2247C9.63725 67.7675 6.0298 60.7335 4.78347 53.1157C3.53713 45.4978 4.71486 37.6809 8.1504 30.7685C11.5859 23.8561 17.1058 18.1972 23.9306 14.5908C30.7555 10.9845 38.5407 9.6127 46.1872 10.6692L47.582 10.8619L46.5863 11.8576L44.2791 14.1648C43.3982 15.0458 42.726 16.113 42.3118 17.288L42.1451 17.7611L41.6435 17.7553L41.1337 17.7493C41.1323 17.7493 41.1309 17.7493 41.1296 17.7493C35.2908 17.751 29.5846 19.4899 24.7373 22.7448C19.8888 26.0005 16.119 30.6255 13.9079 36.0309C11.6968 41.4363 11.1444 47.3775 12.3212 53.0978C13.4981 58.8182 16.3507 64.0588 20.516 68.1525C24.6813 72.2461 29.9706 75.0074 35.7105 76.0848C41.4504 77.1622 47.3811 76.5069 52.7474 74.2024C58.1136 71.8978 62.6725 68.0483 65.8436 63.1441C69.0146 58.2399 70.6544 52.5028 70.5539 46.6635L70.5452 46.1596L71.0204 45.9915C72.1905 45.5777 73.2535 44.9077 74.1317 44.0307L77.5562 41.5057ZM77.5562 41.5057H76.9465H76.9405H76.65L76.4449 41.7114L74.1325 44.0298L77.5562 41.5057ZM41.8336 26.0854V25.3854H41.1336C36.8251 25.3854 32.6133 26.663 29.0309 29.0567C25.4485 31.4504 22.6564 34.8526 21.0076 38.8331C19.3588 42.8136 18.9274 47.1937 19.768 51.4194C20.6085 55.6451 22.6833 59.5267 25.7298 62.5733C28.7764 65.6199 32.658 67.6946 36.8837 68.5351C41.1094 69.3757 45.4895 68.9443 49.47 67.2955C53.4505 65.6467 56.8528 62.8546 59.2464 59.2722C61.6401 55.6898 62.9177 51.4781 62.9177 47.1696V46.4696H62.2177H56.1937H55.4937V47.1696C55.4937 50.0097 54.6515 52.7861 53.0736 55.1476C51.4957 57.5091 49.2529 59.3497 46.6289 60.4366C44.005 61.5235 41.1176 61.8078 38.332 61.2537C35.5464 60.6997 32.9877 59.332 30.9794 57.3237C28.9711 55.3154 27.6035 52.7567 27.0494 49.9711C26.4953 47.1855 26.7797 44.2981 27.8665 41.6742C28.9534 39.0502 30.794 36.8075 33.1555 35.2296C35.517 33.6516 38.2934 32.8094 41.1336 32.8094H41.8336V32.1094V26.0854Z" fill="white" stroke="white" stroke-width="1.4"/>
<g id="Vector_2">
<path d="M64.7215 6.33922C64.3901 5.8438 63.9192 5.45782 63.3684 5.23015C62.8182 5.00175 62.2126 4.94165 61.6282 5.05745C61.0438 5.17326 60.5069 5.45977 60.0853 5.88074L48.0372 17.9288C47.7577 18.2091 47.5361 18.5416 47.3852 18.9076C47.2343 19.2735 47.157 19.6655 47.1577 20.0613V36.8865L42.6939 41.3503C41.8238 41.117 40.9125 41.0817 40.027 41.2471C39.1415 41.4126 38.3044 41.7745 37.5773 42.3062C36.8502 42.838 36.2516 43.5261 35.8256 44.3198C35.3996 45.1135 35.157 45.9926 35.1156 46.8925L35.1096 47.1696C35.1096 48.7672 35.7443 50.2995 36.874 51.4292C38.0037 52.5589 39.536 53.1936 41.1337 53.1936C42.0579 53.1934 42.9698 52.9808 43.7988 52.5721C44.6279 52.1634 45.3518 51.5697 45.9148 50.8367C46.4779 50.1036 46.8648 49.251 47.0459 48.3446C47.2269 47.4382 47.1971 46.5024 46.9589 45.6093L51.4167 41.1455H68.2419C68.6377 41.1462 69.0298 41.0689 69.3957 40.918C69.7616 40.7671 70.0942 40.5455 70.3744 40.266L82.4225 28.2179C82.8448 27.7966 83.1326 27.2595 83.2492 26.6745C83.3659 26.0895 83.3062 25.4831 83.0778 24.932C82.8494 24.381 82.4625 23.9102 81.9662 23.5793C81.4699 23.2484 80.8865 23.0723 80.29 23.0734H65.2299V8.01326C65.2298 7.41724 65.0528 6.83465 64.7215 6.33922Z" fill="white"/>
<path d="M64.7215 6.33922C64.3901 5.8438 63.9192 5.45782 63.3684 5.23015C62.8182 5.00175 62.2126 4.94165 61.6282 5.05745C61.0438 5.17326 60.5069 5.45977 60.0853 5.88074L48.0372 17.9288C47.7577 18.2091 47.5361 18.5416 47.3852 18.9076C47.2343 19.2735 47.157 19.6655 47.1577 20.0613V36.8865L42.6939 41.3503C41.8238 41.117 40.9125 41.0817 40.027 41.2471C39.1415 41.4126 38.3044 41.7745 37.5773 42.3062C36.8502 42.838 36.2516 43.5261 35.8256 44.3198C35.3996 45.1135 35.157 45.9926 35.1156 46.8925L35.1096 47.1696C35.1096 48.7672 35.7443 50.2995 36.874 51.4292C38.0037 52.5589 39.536 53.1936 41.1337 53.1936C42.0579 53.1934 42.9698 52.9808 43.7988 52.5721C44.6279 52.1634 45.3518 51.5697 45.9148 50.8367C46.4779 50.1036 46.8648 49.251 47.0459 48.3446C47.2269 47.4382 47.1971 46.5024 46.9589 45.6093L51.4167 41.1455H68.2419C68.6377 41.1462 69.0298 41.0689 69.3957 40.918C69.7616 40.7671 70.0942 40.5455 70.3744 40.266L82.4225 28.2179C82.8448 27.7966 83.1326 27.2595 83.2492 26.6745C83.3659 26.0895 83.3062 25.4831 83.0778 24.932C82.8494 24.381 82.4625 23.9102 81.9662 23.5793C81.4699 23.2484 80.8865 23.0723 80.29 23.0734H65.2299V8.01326C65.2298 7.41724 65.0528 6.83465 64.7215 6.33922Z" stroke="white"/>
</g>
</g>
</svg>
