<svg width="130" height="41" viewBox="0 0 130 41" fill="none" xmlns="http://www.w3.org/2000/svg">
<path fill-rule="evenodd" clip-rule="evenodd" d="M8.86364 0.0454102H20.6818C25.5771 0.0454102 29.5455 3.40327 29.5455 7.54541V17.1819H53.5539C54.8658 12.0846 59.493 8.31812 64.9998 8.31812C70.5067 8.31812 75.1338 12.0846 76.4457 17.1819H100.454V7.54541C100.454 3.40327 104.422 0.0454102 109.318 0.0454102H121.136C126.031 0.0454102 130 3.40327 130 7.54541V32.5454C130 36.6875 126.031 40.0454 121.136 40.0454H109.318C104.422 40.0454 100.454 36.6875 100.454 32.5454V23.091H76.4456C75.1337 28.1882 70.5066 31.9545 64.9998 31.9545C59.4931 31.9545 54.866 28.1882 53.554 23.091H29.5455V32.5454C29.5455 36.6875 25.5771 40.0454 20.6818 40.0454H8.86364C3.96839 40.0454 0 36.6875 0 32.5454V7.54541C0 3.40327 3.96839 0.0454102 8.86364 0.0454102Z" fill="white"/>
</svg>
