<svg width="40" height="44" viewBox="0 0 40 44" fill="none" xmlns="http://www.w3.org/2000/svg">
<g clip-path="url(#clip0_7056_11329)">
<path d="M2.76147 38.2161H36.5144V43.2004H2.76147V38.2161ZM21.1538 27.9549C21.1538 27.119 20.4738 26.4387 19.638 26.4387C18.8021 26.4387 18.1217 27.119 18.1217 27.9549V35.7258H21.1538V27.9549Z" fill="white"/>
<path d="M15.6317 35.7258V27.9549C15.6317 25.7458 17.429 23.9484 19.6381 23.9484C21.8472 23.9484 23.6442 25.7458 23.6442 27.9549V35.7258H31.5299V22.5614C31.5299 16.0041 26.1954 10.6696 19.6381 10.6696C13.0808 10.6696 7.74587 16.004 7.74587 22.5613V35.7258H15.6317ZM18.393 1.94556C18.393 1.2579 18.9504 0.700439 19.6381 0.700439C20.3257 0.700439 20.8832 1.2579 20.8832 1.94556V6.1001C20.8832 6.78776 20.3257 7.34522 19.6381 7.34522C18.9504 7.34522 18.393 6.78776 18.393 6.1001V1.94556ZM0.705827 11.6307C1.04965 11.0352 1.81112 10.8312 2.40663 11.175L6.00449 13.2521C6.60002 13.596 6.80406 14.3575 6.46023 14.953C6.11641 15.5485 5.35494 15.7525 4.75943 15.4087L1.16157 13.3316C0.566036 12.9877 0.361991 12.2262 0.705827 11.6307ZM36.8692 11.1744C37.4647 10.8305 38.2262 11.0346 38.57 11.6301C38.9138 12.2256 38.7098 12.9871 38.1143 13.3309L34.5163 15.4082C33.9208 15.752 33.1594 15.548 32.8156 14.9526C32.4717 14.3571 32.6757 13.5956 33.2712 13.2518L36.8692 11.1744ZM8.70759 3.62907C9.30305 3.28523 10.0645 3.48922 10.4083 4.0847L12.4858 7.68265C12.8296 8.27816 12.6256 9.03965 12.0301 9.38347C11.4346 9.7273 10.6731 9.52327 10.3293 8.92775L8.25195 5.32973C7.90817 4.73428 8.11216 3.97289 8.70759 3.62907ZM28.8669 4.0848C29.2107 3.48926 29.9722 3.28522 30.5677 3.62905C31.1632 3.97288 31.3673 4.73435 31.0235 5.32986L28.9463 8.92771C28.6025 9.52325 27.841 9.72729 27.2455 9.38346C26.65 9.03963 26.4459 8.27816 26.7897 7.68265L28.8669 4.0848Z" fill="white"/>
</g>
<defs>
<clipPath id="clip0_7056_11329">
<rect width="39.0625" height="42.5" fill="white" transform="translate(0.000244141 0.700439)"/>
</clipPath>
</defs>
</svg>
