<svg width="20" height="20" viewBox="0 0 20 20" fill="none" xmlns="http://www.w3.org/2000/svg">
<mask id="path-1-outside-1_73_76160" maskUnits="userSpaceOnUse" x="3.22656" y="-0.75" width="15" height="21" fill="black">
<rect fill="white" x="3.22656" y="-0.75" width="15" height="21"/>
<path fill-rule="evenodd" clip-rule="evenodd" d="M4.22656 5.64436V10.0387V12.8953V13.5243V14.1534V15.5272V17.1386V18.75H5.65374H7.52575V17.1379V15.5257V14.1534V13.5267V12.8999L9.44409 12.8828C11.4237 12.8684 11.8627 12.8557 12.1486 12.8044C12.3364 12.7708 12.6367 12.7009 12.8159 12.6492C12.9951 12.5975 13.3149 12.4811 13.5265 12.3904C13.738 12.2998 14.0367 12.1494 14.1901 12.0563C14.3435 11.9631 14.5974 11.7891 14.7544 11.6697C14.9114 11.5502 15.1685 11.3237 15.3259 11.1663C15.4832 11.0089 15.7098 10.7518 15.8292 10.5948C15.9487 10.4379 16.1227 10.1839 16.2158 10.0305C16.309 9.87711 16.4593 9.57847 16.55 9.36692C16.6406 9.15533 16.7571 8.83553 16.8088 8.6563C16.8605 8.47703 16.9291 8.16842 16.9613 7.97051C16.9941 7.76811 17.0202 7.38133 17.0208 7.08659C17.0214 6.79834 17.0025 6.43135 16.9788 6.27106C16.9551 6.11074 16.8956 5.82111 16.8466 5.62742C16.7976 5.43374 16.7096 5.148 16.651 4.99246C16.5924 4.83692 16.4668 4.56375 16.372 4.38541C16.2771 4.20707 16.126 3.95066 16.0362 3.81562C15.9464 3.68057 15.7542 3.43291 15.6092 3.26528C15.464 3.09765 15.2082 2.84165 15.0405 2.69641C14.8729 2.55114 14.6019 2.34314 14.4383 2.23412C14.2747 2.12514 13.9911 1.96248 13.8081 1.87273C13.6251 1.78295 13.3586 1.66629 13.2159 1.6135C13.0732 1.56068 12.823 1.48313 12.6599 1.4412C12.4968 1.39924 12.2632 1.3456 12.1409 1.32199C11.9844 1.29174 10.7791 1.27473 8.07252 1.26453L4.22656 1.25V5.64436ZM11.9378 4.3448C11.7848 4.27923 11.531 4.19942 11.3739 4.16746C11.1332 4.11853 10.7371 4.10938 8.86243 4.10938H7.52637V7.07697V10.0446L8.94427 10.0321L11.2153 10.019C11.381 9.99521 11.5783 9.91838 11.5783 9.91838C11.7579 9.86271 11.9915 9.77367 12.0973 9.72051C12.2032 9.66735 12.3899 9.5528 12.5122 9.46595C12.6345 9.37913 12.8188 9.21848 12.9218 9.10897C13.0247 8.99947 13.1639 8.82939 13.2312 8.73101C13.2986 8.63263 13.4084 8.43245 13.4754 8.28618C13.5423 8.1399 13.6271 7.90344 13.6638 7.76072C13.7112 7.57711 13.7299 7.37116 13.7282 7.0564C13.7264 6.73119 13.7053 6.53546 13.6498 6.3285C13.6081 6.17281 13.5132 5.92259 13.439 5.77246C13.3648 5.62233 13.2408 5.41559 13.1634 5.31306C13.086 5.21056 12.9328 5.03852 12.823 4.93083C12.7132 4.82311 12.5317 4.67405 12.4197 4.59954C12.3077 4.525 12.0908 4.41038 11.9378 4.3448Z"/>
</mask>
<path fill-rule="evenodd" clip-rule="evenodd" d="M4.22656 5.64436V10.0387V12.8953V13.5243V14.1534V15.5272V17.1386V18.75H5.65374H7.52575V17.1379V15.5257V14.1534V13.5267V12.8999L9.44409 12.8828C11.4237 12.8684 11.8627 12.8557 12.1486 12.8044C12.3364 12.7708 12.6367 12.7009 12.8159 12.6492C12.9951 12.5975 13.3149 12.4811 13.5265 12.3904C13.738 12.2998 14.0367 12.1494 14.1901 12.0563C14.3435 11.9631 14.5974 11.7891 14.7544 11.6697C14.9114 11.5502 15.1685 11.3237 15.3259 11.1663C15.4832 11.0089 15.7098 10.7518 15.8292 10.5948C15.9487 10.4379 16.1227 10.1839 16.2158 10.0305C16.309 9.87711 16.4593 9.57847 16.55 9.36692C16.6406 9.15533 16.7571 8.83553 16.8088 8.6563C16.8605 8.47703 16.9291 8.16842 16.9613 7.97051C16.9941 7.76811 17.0202 7.38133 17.0208 7.08659C17.0214 6.79834 17.0025 6.43135 16.9788 6.27106C16.9551 6.11074 16.8956 5.82111 16.8466 5.62742C16.7976 5.43374 16.7096 5.148 16.651 4.99246C16.5924 4.83692 16.4668 4.56375 16.372 4.38541C16.2771 4.20707 16.126 3.95066 16.0362 3.81562C15.9464 3.68057 15.7542 3.43291 15.6092 3.26528C15.464 3.09765 15.2082 2.84165 15.0405 2.69641C14.8729 2.55114 14.6019 2.34314 14.4383 2.23412C14.2747 2.12514 13.9911 1.96248 13.8081 1.87273C13.6251 1.78295 13.3586 1.66629 13.2159 1.6135C13.0732 1.56068 12.823 1.48313 12.6599 1.4412C12.4968 1.39924 12.2632 1.3456 12.1409 1.32199C11.9844 1.29174 10.7791 1.27473 8.07252 1.26453L4.22656 1.25V5.64436ZM11.9378 4.3448C11.7848 4.27923 11.531 4.19942 11.3739 4.16746C11.1332 4.11853 10.7371 4.10938 8.86243 4.10938H7.52637V7.07697V10.0446L8.94427 10.0321L11.2153 10.019C11.381 9.99521 11.5783 9.91838 11.5783 9.91838C11.7579 9.86271 11.9915 9.77367 12.0973 9.72051C12.2032 9.66735 12.3899 9.5528 12.5122 9.46595C12.6345 9.37913 12.8188 9.21848 12.9218 9.10897C13.0247 8.99947 13.1639 8.82939 13.2312 8.73101C13.2986 8.63263 13.4084 8.43245 13.4754 8.28618C13.5423 8.1399 13.6271 7.90344 13.6638 7.76072C13.7112 7.57711 13.7299 7.37116 13.7282 7.0564C13.7264 6.73119 13.7053 6.53546 13.6498 6.3285C13.6081 6.17281 13.5132 5.92259 13.439 5.77246C13.3648 5.62233 13.2408 5.41559 13.1634 5.31306C13.086 5.21056 12.9328 5.03852 12.823 4.93083C12.7132 4.82311 12.5317 4.67405 12.4197 4.59954C12.3077 4.525 12.0908 4.41038 11.9378 4.3448Z" fill="#FFC700"/>
<path d="M4.22656 18.75H3.22656V19.75H4.22656V18.75ZM7.52575 18.75V19.75H8.52575V18.75H7.52575ZM7.52575 12.8999L7.5168 11.9L6.52575 11.9088V12.8999H7.52575ZM9.44409 12.8828L9.43684 11.8828L9.43514 11.8828L9.44409 12.8828ZM12.1486 12.8044L11.9722 11.8201L11.9722 11.8201L12.1486 12.8044ZM12.8159 12.6492L13.0931 13.61L13.0931 13.61L12.8159 12.6492ZM13.5265 12.3904L13.9202 13.3096L13.9203 13.3096L13.5265 12.3904ZM14.1901 12.0563L14.709 12.9111L14.709 12.9111L14.1901 12.0563ZM14.7544 11.6697L14.1488 10.8739L14.1487 10.874L14.7544 11.6697ZM15.3259 11.1663L16.033 11.8734L16.033 11.8734L15.3259 11.1663ZM15.8292 10.5948L15.0335 9.98911L15.0335 9.9892L15.8292 10.5948ZM16.2158 10.0305L17.0706 10.5495L17.0707 10.5494L16.2158 10.0305ZM16.55 9.36692L17.4692 9.76072L17.4692 9.76066L16.55 9.36692ZM16.8088 8.6563L17.7696 8.93351L17.7696 8.93346L16.8088 8.6563ZM16.9613 7.97051L15.9742 7.81016L15.9742 7.81022L16.9613 7.97051ZM17.0208 7.08659L16.0208 7.08453V7.08458L17.0208 7.08659ZM16.9788 6.27106L15.9895 6.41722L15.9895 6.41725L16.9788 6.27106ZM16.651 4.99246L15.7151 5.34485L15.7152 5.34505L16.651 4.99246ZM16.0362 3.81562L16.869 3.26197L16.869 3.26197L16.0362 3.81562ZM15.6092 3.26528L16.3653 2.61084L16.3652 2.61074L15.6092 3.26528ZM15.0405 2.69641L14.3856 3.45211L14.3857 3.45219L15.0405 2.69641ZM14.4383 2.23412L14.9928 1.40192L14.9926 1.40184L14.4383 2.23412ZM13.8081 1.87273L13.3676 2.77048L13.3677 2.77055L13.8081 1.87273ZM13.2159 1.6135L12.8688 2.55133L12.869 2.5514L13.2159 1.6135ZM12.6599 1.4412L12.4107 2.40967L12.4109 2.40972L12.6599 1.4412ZM12.1409 1.32199L11.9512 2.30383L11.9514 2.30386L12.1409 1.32199ZM8.07252 1.26453L8.06874 2.26452H8.06875L8.07252 1.26453ZM4.22656 1.25L4.23034 0.250007L3.22656 0.246215V1.25H4.22656ZM11.3739 4.16746L11.5732 3.18752L11.5731 3.18751L11.3739 4.16746ZM7.52637 4.10938V3.10938H6.52637V4.10938H7.52637ZM7.52637 10.0446H6.52637V11.0535L7.53518 11.0446L7.52637 10.0446ZM8.94427 10.0321L8.93849 9.03213L8.93547 9.03215L8.94427 10.0321ZM11.2153 10.019L11.2211 11.019L11.2896 11.0186L11.3574 11.0088L11.2153 10.019ZM11.5783 9.91838L11.2822 8.96323L11.2485 8.97369L11.2156 8.9865L11.5783 9.91838ZM12.0973 9.72051L11.6486 8.82683L11.6485 8.8269L12.0973 9.72051ZM12.5122 9.46595L11.9335 8.65045L11.9333 8.65057L12.5122 9.46595ZM12.9218 9.10897L13.6504 9.79391L13.6505 9.79378L12.9218 9.10897ZM13.2312 8.73101L12.4061 8.16609L12.406 8.16631L13.2312 8.73101ZM13.4754 8.28618L12.566 7.8702L12.566 7.87021L13.4754 8.28618ZM13.6638 7.76072L12.6955 7.51124L12.6954 7.51144L13.6638 7.76072ZM13.7282 7.0564L12.7282 7.06187V7.06193L13.7282 7.0564ZM13.6498 6.3285L14.6157 6.06952L14.6157 6.06933L13.6498 6.3285ZM13.439 5.77246L12.5424 6.21542L12.5425 6.2156L13.439 5.77246ZM13.1634 5.31306L13.9615 4.71057L13.9614 4.71043L13.1634 5.31306ZM12.823 4.93083L12.1227 5.64466L12.1227 5.64466L12.823 4.93083ZM12.4197 4.59954L11.8657 5.43206L11.8659 5.43219L12.4197 4.59954ZM5.22656 10.0387V5.64436H3.22656V10.0387H5.22656ZM5.22656 12.8953V10.0387H3.22656V12.8953H5.22656ZM5.22656 13.5243V12.8953H3.22656V13.5243H5.22656ZM5.22656 14.1534V13.5243H3.22656V14.1534H5.22656ZM5.22656 15.5272V14.1534H3.22656V15.5272H5.22656ZM5.22656 17.1386V15.5272H3.22656V17.1386H5.22656ZM5.22656 18.75V17.1386H3.22656V18.75H5.22656ZM5.65374 17.75H4.22656V19.75H5.65374V17.75ZM7.52575 17.75H5.65374V19.75H7.52575V17.75ZM6.52575 17.1379V18.75H8.52575V17.1379H6.52575ZM6.52575 15.5257V17.1379H8.52575V15.5257H6.52575ZM6.52575 14.1534V15.5257H8.52575V14.1534H6.52575ZM6.52575 13.5267V14.1534H8.52575V13.5267H6.52575ZM6.52575 12.8999V13.5267H8.52575V12.8999H6.52575ZM9.43514 11.8828L7.5168 11.9L7.53469 13.8999L9.45304 13.8827L9.43514 11.8828ZM11.9722 11.8201C11.7945 11.852 11.476 11.868 9.43684 11.8828L9.45134 13.8827C11.3715 13.8688 11.9309 13.8594 12.3251 13.7887L11.9722 11.8201ZM12.5387 11.6884C12.3934 11.7304 12.1268 11.7924 11.9722 11.8201L12.3251 13.7888C12.546 13.7491 12.88 13.6715 13.0931 13.61L12.5387 11.6884ZM13.1327 11.4712C12.9507 11.5492 12.6703 11.6504 12.5387 11.6884L13.0931 13.61C13.3199 13.5446 13.6791 13.4129 13.9202 13.3096L13.1327 11.4712ZM13.6711 11.2015C13.5672 11.2645 13.3124 11.3942 13.1327 11.4712L13.9203 13.3096C14.1637 13.2053 14.5061 13.0342 14.709 12.9111L13.6711 11.2015ZM14.1487 10.874C14.0169 10.9743 13.7918 11.1282 13.6711 11.2015L14.709 12.9111C14.8952 12.798 15.178 12.604 15.3601 12.4654L14.1487 10.874ZM14.6188 10.4592C14.4892 10.5888 14.2657 10.7849 14.1488 10.8739L15.36 12.4654C15.557 12.3155 15.8479 12.0585 16.033 11.8734L14.6188 10.4592ZM15.0335 9.9892C14.9445 10.1061 14.7484 10.3296 14.6188 10.4592L16.033 11.8734C16.2181 11.6883 16.475 11.3975 16.625 11.2004L15.0335 9.9892ZM15.361 9.51151C15.2877 9.63224 15.1339 9.85729 15.0335 9.98911L16.6249 11.2005C16.7635 11.0184 16.9576 10.7356 17.0706 10.5495L15.361 9.51151ZM15.6308 8.97311C15.5538 9.15283 15.4241 9.40763 15.361 9.51158L17.0707 10.5494C17.1938 10.3466 17.3649 10.0041 17.4692 9.76072L15.6308 8.97311ZM15.848 8.37908C15.81 8.51076 15.7087 8.79115 15.6308 8.97318L17.4692 9.76066C17.5725 9.5195 17.7042 9.16029 17.7696 8.93351L15.848 8.37908ZM15.9742 7.81022C15.948 7.97156 15.8878 8.24096 15.848 8.37914L17.7696 8.93346C17.8332 8.71309 17.9103 8.36529 17.9483 8.1308L15.9742 7.81022ZM16.0208 7.08458C16.0203 7.34708 15.9958 7.67727 15.9742 7.81016L17.9483 8.13086C17.9925 7.85896 18.0201 7.41558 18.0208 7.0886L16.0208 7.08458ZM15.9895 6.41725C16.0025 6.50472 16.0214 6.81408 16.0208 7.08453L18.0208 7.08865C18.0214 6.78259 18.0025 6.35798 17.9681 6.12487L15.9895 6.41725ZM15.8772 5.87271C15.9197 6.04097 15.9718 6.29692 15.9895 6.41722L17.9681 6.1249C17.9385 5.92455 17.8715 5.60125 17.8161 5.38214L15.8772 5.87271ZM15.7152 5.34505C15.7582 5.45923 15.8356 5.70827 15.8772 5.87271L17.8161 5.38214C17.7597 5.1592 17.661 4.83678 17.5868 4.63987L15.7152 5.34505ZM15.4891 4.85502C15.568 5.00337 15.6746 5.23706 15.7151 5.34485L17.5868 4.64007C17.5103 4.43677 17.3657 4.12414 17.2548 3.9158L15.4891 4.85502ZM15.2035 4.36926C15.2715 4.47153 15.406 4.69888 15.4891 4.85502L17.2548 3.9158C17.1482 3.71526 16.9806 3.42979 16.869 3.26197L15.2035 4.36926ZM14.853 3.91973C14.9798 4.06616 15.1438 4.27953 15.2035 4.36926L16.869 3.26197C16.7491 3.08161 16.5287 2.79966 16.3653 2.61084L14.853 3.91973ZM14.3857 3.45219C14.5172 3.5661 14.7392 3.78826 14.8531 3.91983L16.3652 2.61074C16.1888 2.40705 15.8992 2.11721 15.6954 1.94064L14.3857 3.45219ZM13.8838 3.06632C14.0083 3.1493 14.2459 3.33106 14.3856 3.45211L15.6955 1.94072C15.4999 1.77121 15.1955 1.53699 14.9928 1.40192L13.8838 3.06632ZM13.3677 2.77055C13.5126 2.84161 13.758 2.98254 13.8839 3.0664L14.9926 1.40184C14.7913 1.26774 14.4695 1.08334 14.2485 0.97491L13.3677 2.77055ZM12.869 2.5514C12.9713 2.58923 13.2056 2.69099 13.3676 2.77048L14.2486 0.974982C14.0446 0.874902 13.746 0.743353 13.5628 0.675602L12.869 2.5514ZM12.4109 2.40972C12.5442 2.44397 12.7614 2.51156 12.8688 2.55133L13.563 0.675681C13.385 0.609799 13.1018 0.522288 12.9088 0.472689L12.4109 2.40972ZM11.9514 2.30386C12.0482 2.32255 12.261 2.37116 12.4107 2.40967L12.909 0.472742C12.7325 0.427323 12.4783 0.368652 12.3304 0.340114L11.9514 2.30386ZM8.06875 2.26452C9.42159 2.26962 10.3952 2.27641 11.0489 2.28564C11.3763 2.29026 11.6185 2.29544 11.7859 2.30111C11.9966 2.30825 12.0077 2.31475 11.9512 2.30383L12.3306 0.34015C12.1958 0.314102 11.9975 0.307132 11.8537 0.302257C11.6665 0.295914 11.4088 0.290524 11.0771 0.285839C10.4124 0.276452 9.43008 0.269637 8.07629 0.264538L8.06875 2.26452ZM4.22278 2.24999L8.06874 2.26452L8.0763 0.264538L4.23034 0.250007L4.22278 2.24999ZM5.22656 5.64436V1.25H3.22656V5.64436H5.22656ZM11.1746 5.14741C11.2624 5.16527 11.4511 5.22419 11.5439 5.26396L12.3317 3.42565C12.1185 3.33427 11.7996 3.23357 11.5732 3.18752L11.1746 5.14741ZM8.86243 5.10938C9.80262 5.10938 10.3581 5.11172 10.7078 5.1198C11.0678 5.12813 11.149 5.14221 11.1746 5.14741L11.5731 3.18751C11.3581 3.14379 11.121 3.12882 10.754 3.12034C10.3768 3.11161 9.79694 3.10938 8.86243 3.10938V5.10938ZM7.52637 5.10938H8.86243V3.10938H7.52637V5.10938ZM8.52637 7.07697V4.10938H6.52637V7.07697H8.52637ZM8.52637 10.0446V7.07697H6.52637V10.0446H8.52637ZM8.93547 9.03215L7.51756 9.04464L7.53518 11.0446L8.95308 11.0321L8.93547 9.03215ZM11.2095 9.019L8.93849 9.03213L8.95006 11.0321L11.2211 11.019L11.2095 9.019ZM11.5783 9.91838C11.2156 8.9865 11.2156 8.98647 11.2157 8.98644C11.2157 8.98643 11.2158 8.9864 11.2159 8.98638C11.216 8.98634 11.2161 8.9863 11.2162 8.98626C11.2164 8.98619 11.2166 8.98611 11.2167 8.98605C11.2171 8.98591 11.2174 8.98579 11.2176 8.98569C11.2182 8.98549 11.2185 8.98535 11.2187 8.98528C11.2191 8.98512 11.2189 8.98521 11.2181 8.98552C11.2164 8.98614 11.2126 8.98757 11.2069 8.98961C11.1953 8.99378 11.1777 8.99989 11.1571 9.00642C11.1361 9.01307 11.1154 9.01904 11.0973 9.02362C11.0778 9.02854 11.0701 9.02958 11.0733 9.02913L11.3574 11.0088C11.5202 10.9855 11.6713 10.9415 11.7608 10.9131C11.8102 10.8975 11.8523 10.8829 11.8829 10.8719C11.8983 10.8664 11.9112 10.8616 11.921 10.8579C11.9259 10.8561 11.93 10.8545 11.9334 10.8532C11.9351 10.8526 11.9366 10.852 11.9379 10.8515C11.9385 10.8513 11.9391 10.851 11.9396 10.8508C11.9399 10.8507 11.9402 10.8506 11.9404 10.8505C11.9405 10.8505 11.9406 10.8504 11.9408 10.8504C11.9408 10.8504 11.9409 10.8503 11.9409 10.8503C11.941 10.8503 11.9411 10.8503 11.5783 9.91838ZM11.6485 8.8269C11.6496 8.82633 11.6375 8.83226 11.6082 8.8446C11.5813 8.85598 11.5475 8.8695 11.5092 8.88411C11.4312 8.91386 11.3482 8.94276 11.2822 8.96323L11.8744 10.8735C12.0798 10.8099 12.3713 10.7019 12.5461 10.6141L11.6485 8.8269ZM11.9333 8.65057C11.842 8.71537 11.6991 8.80147 11.6486 8.82683L12.546 10.6142C12.7072 10.5332 12.9377 10.3902 13.0911 10.2813L11.9333 8.65057ZM12.1932 8.42403C12.1355 8.48537 12.0014 8.60224 11.9335 8.65045L13.091 10.2815C13.2677 10.156 13.5021 9.95158 13.6504 9.79391L12.1932 8.42403ZM12.406 8.16631C12.374 8.21295 12.2694 8.34295 12.193 8.42416L13.6505 9.79378C13.78 9.65599 13.9538 9.44584 14.0565 9.29572L12.406 8.16631ZM12.566 7.87021C12.545 7.91615 12.5124 7.98058 12.4768 8.04549C12.4595 8.07694 12.4434 8.10517 12.4296 8.12821C12.4228 8.13962 12.4172 8.14882 12.4127 8.15581C12.4082 8.16305 12.406 8.16624 12.4061 8.16609L14.0564 9.29593C14.165 9.13731 14.3017 8.88365 14.3847 8.70215L12.566 7.87021ZM12.6954 7.51144C12.6747 7.5919 12.6106 7.77268 12.566 7.8702L14.3847 8.70215C14.4739 8.50713 14.5795 8.21497 14.6323 8.00999L12.6954 7.51144ZM12.7282 7.06193C12.7298 7.33936 12.7119 7.44765 12.6955 7.51124L14.6322 8.01019C14.7104 7.70658 14.7301 7.40295 14.7282 7.05087L12.7282 7.06193ZM12.684 6.58749C12.709 6.68093 12.7267 6.78307 12.7282 7.06187L14.7282 7.05093C14.7262 6.6793 14.7016 6.38999 14.6157 6.06952L12.684 6.58749ZM12.5425 6.2156C12.5887 6.30901 12.6599 6.49773 12.684 6.58767L14.6157 6.06933C14.5562 5.84789 14.4377 5.53617 14.3354 5.32932L12.5425 6.2156ZM12.3652 5.91555C12.3651 5.91541 12.3658 5.91627 12.3672 5.91825C12.3686 5.9202 12.3706 5.92293 12.373 5.92648C12.378 5.9337 12.3844 5.94315 12.3921 5.95484C12.4076 5.97845 12.4256 6.0073 12.4449 6.03937C12.4847 6.10583 12.5203 6.17065 12.5424 6.21542L14.3355 5.3295C14.2414 5.13907 14.086 4.87544 13.9615 4.71057L12.3652 5.91555ZM12.1227 5.64466C12.2038 5.72421 12.3228 5.85936 12.3654 5.91569L13.9614 4.71043C13.8491 4.56177 13.6618 4.35283 13.5234 4.21701L12.1227 5.64466ZM11.8659 5.43219C11.9187 5.46732 12.0517 5.57502 12.1227 5.64466L13.5234 4.21701C13.3747 4.0712 13.1448 3.88079 12.9735 3.7669L11.8659 5.43219ZM11.5439 5.26396C11.6537 5.311 11.8146 5.39805 11.8657 5.43206L12.9737 3.76703C12.8008 3.65195 12.528 3.50976 12.3317 3.42565L11.5439 5.26396Z" fill="black" mask="url(#path-1-outside-1_73_76160)"/>
</svg>
