<svg width="64" height="64" viewBox="0 0 64 64" fill="none" xmlns="http://www.w3.org/2000/svg">
<g clip-path="url(#clip0_3413_11291)">
<mask id="path-1-outside-1_3413_11291" maskUnits="userSpaceOnUse" x="0" y="0.00390625" width="64" height="64" fill="black">
<rect fill="white" y="0.00390625" width="64" height="64"/>
<path fill-rule="evenodd" clip-rule="evenodd" d="M60 58.0023V20.0023C60 19.641 59.902 19.2865 59.7164 18.9765C59.5308 18.6666 59.2645 18.4128 58.946 18.2423L32.946 4.24232C32.6549 4.08582 32.3295 4.00391 31.999 4.00391C31.6685 4.00391 31.3431 4.08582 31.052 4.24232L5.052 18.2423C4.404 18.5903 4 19.2663 4 20.0023V58.0023C4 58.5328 4.21071 59.0415 4.58579 59.4165C4.96086 59.7916 5.46957 60.0023 6 60.0023H14V28.0023C14 27.4719 14.2107 26.9632 14.5858 26.5881C14.9609 26.213 15.4696 26.0023 16 26.0023H48C48.5304 26.0023 49.0391 26.213 49.4142 26.5881C49.7893 26.9632 50 27.4719 50 28.0023V60.0023H58C58.5304 60.0023 59.0391 59.7916 59.4142 59.4165C59.7893 59.0415 60 58.5328 60 58.0023ZM46.775 40.1465H17.225V46.4787H46.775V40.1465ZM17.225 35.9251H46.775V29.593H17.225V35.9251ZM46.775 50.7001H17.225V57.0323H46.775V50.7001Z"/>
</mask>
<path fill-rule="evenodd" clip-rule="evenodd" d="M60 58.0023V20.0023C60 19.641 59.902 19.2865 59.7164 18.9765C59.5308 18.6666 59.2645 18.4128 58.946 18.2423L32.946 4.24232C32.6549 4.08582 32.3295 4.00391 31.999 4.00391C31.6685 4.00391 31.3431 4.08582 31.052 4.24232L5.052 18.2423C4.404 18.5903 4 19.2663 4 20.0023V58.0023C4 58.5328 4.21071 59.0415 4.58579 59.4165C4.96086 59.7916 5.46957 60.0023 6 60.0023H14V28.0023C14 27.4719 14.2107 26.9632 14.5858 26.5881C14.9609 26.213 15.4696 26.0023 16 26.0023H48C48.5304 26.0023 49.0391 26.213 49.4142 26.5881C49.7893 26.9632 50 27.4719 50 28.0023V60.0023H58C58.5304 60.0023 59.0391 59.7916 59.4142 59.4165C59.7893 59.0415 60 58.5328 60 58.0023ZM46.775 40.1465H17.225V46.4787H46.775V40.1465ZM17.225 35.9251H46.775V29.593H17.225V35.9251ZM46.775 50.7001H17.225V57.0323H46.775V50.7001Z" fill="#00BE41"/>
<path d="M60 20.0023L56.8 20.0019V20.0023H60ZM58.946 18.2423L57.4289 21.0598L57.4358 21.0635L58.946 18.2423ZM32.946 4.24232L34.4631 1.42481L34.4612 1.42378L32.946 4.24232ZM31.052 4.24232L29.5368 1.42378L29.5349 1.42481L31.052 4.24232ZM5.052 18.2423L6.566 21.0615L6.56912 21.0598L5.052 18.2423ZM4.58579 59.4165L6.84853 57.1538H6.84853L4.58579 59.4165ZM14 60.0023V63.2023H17.2V60.0023H14ZM50 60.0023H46.8V63.2023H50V60.0023ZM17.225 40.1465V36.9465H14.025V40.1465H17.225ZM46.775 40.1465H49.975V36.9465H46.775V40.1465ZM17.225 46.4787H14.025V49.6787H17.225V46.4787ZM46.775 46.4787V49.6787H49.975V46.4787H46.775ZM46.775 35.9251V39.1251H49.975V35.9251H46.775ZM17.225 35.9251H14.025V39.1251H17.225V35.9251ZM46.775 29.593H49.975V26.393H46.775V29.593ZM17.225 29.593V26.393H14.025V29.593H17.225ZM17.225 50.7001V47.5001H14.025V50.7001H17.225ZM46.775 50.7001H49.975V47.5001H46.775V50.7001ZM17.225 57.0323H14.025V60.2323H17.225V57.0323ZM46.775 57.0323V60.2323H49.975V57.0323H46.775ZM56.8 20.0023V58.0023H63.2V20.0023H56.8ZM56.9711 20.6206C56.8591 20.4337 56.8 20.2198 56.8 20.0019L63.2 20.0028C63.2001 19.0623 62.945 18.1393 62.4618 17.3324L56.9711 20.6206ZM57.4358 21.0635C57.2436 20.9607 57.083 20.8076 56.9711 20.6206L62.4618 17.3324C61.9786 16.5256 61.2854 15.865 60.4562 15.4211L57.4358 21.0635ZM31.4289 7.05983L57.4289 21.0598L60.4631 15.4248L34.4631 1.42481L31.4289 7.05983ZM31.999 7.20391C31.8007 7.20391 31.6055 7.15476 31.4308 7.06086L34.4612 1.42378C33.7043 1.01688 32.8583 0.803906 31.999 0.803906V7.20391ZM32.5672 7.06086C32.3925 7.15476 32.1973 7.20391 31.999 7.20391V0.803906C31.1397 0.803906 30.2937 1.01688 29.5368 1.42378L32.5672 7.06086ZM6.56912 21.0598L32.5691 7.05983L29.5349 1.42481L3.53488 15.4248L6.56912 21.0598ZM7.2 20.0023C7.2 20.4436 6.95736 20.8513 6.566 21.0615L3.538 15.4231C1.85064 16.3293 0.8 18.0891 0.8 20.0023H7.2ZM7.2 58.0023V20.0023H0.8V58.0023H7.2ZM6.84853 57.1538C7.07357 57.3788 7.2 57.6841 7.2 58.0023H0.8C0.8 59.3814 1.34785 60.7041 2.32305 61.6793L6.84853 57.1538ZM6 56.8023C6.31825 56.8023 6.62348 56.9287 6.84853 57.1538L2.32305 61.6793C3.29824 62.6545 4.62088 63.2023 6 63.2023V56.8023ZM14 56.8023H6V63.2023H14V56.8023ZM10.8 28.0023V60.0023H17.2V28.0023H10.8ZM12.323 24.3254C11.3479 25.3006 10.8 26.6232 10.8 28.0023H17.2C17.2 28.3206 17.0736 28.6258 16.8485 28.8508L12.323 24.3254ZM16 22.8023C14.6209 22.8023 13.2982 23.3502 12.323 24.3254L16.8485 28.8508C16.6235 29.0759 16.3183 29.2023 16 29.2023V22.8023ZM48 22.8023H16V29.2023H48V22.8023ZM51.677 24.3254C50.7018 23.3502 49.3791 22.8023 48 22.8023V29.2023C47.6817 29.2023 47.3765 29.0759 47.1515 28.8508L51.677 24.3254ZM53.2 28.0023C53.2 26.6232 52.6522 25.3006 51.677 24.3254L47.1515 28.8508C46.9264 28.6258 46.8 28.3206 46.8 28.0023H53.2ZM53.2 60.0023V28.0023H46.8V60.0023H53.2ZM58 56.8023H50V63.2023H58V56.8023ZM57.1515 57.1538C57.3765 56.9287 57.6817 56.8023 58 56.8023V63.2023C59.3791 63.2023 60.7018 62.6545 61.677 61.6793L57.1515 57.1538ZM56.8 58.0023C56.8 57.6841 56.9264 57.3788 57.1515 57.1538L61.677 61.6793C62.6522 60.7041 63.2 59.3814 63.2 58.0023H56.8ZM17.225 43.3465H46.775V36.9465H17.225V43.3465ZM20.425 46.4787V40.1465H14.025V46.4787H20.425ZM46.775 43.2787H17.225V49.6787H46.775V43.2787ZM43.575 40.1465V46.4787H49.975V40.1465H43.575ZM46.775 32.7251H17.225V39.1251H46.775V32.7251ZM43.575 29.593V35.9251H49.975V29.593H43.575ZM17.225 32.793H46.775V26.393H17.225V32.793ZM20.425 35.9251V29.593H14.025V35.9251H20.425ZM17.225 53.9001H46.775V47.5001H17.225V53.9001ZM20.425 57.0323V50.7001H14.025V57.0323H20.425ZM46.775 53.8323H17.225V60.2323H46.775V53.8323ZM43.575 50.7001V57.0323H49.975V50.7001H43.575Z" fill="black" mask="url(#path-1-outside-1_3413_11291)"/>
</g>
<defs>
<clipPath id="clip0_3413_11291">
<rect width="64" height="64" fill="white"/>
</clipPath>
</defs>
</svg>
