<svg width="32" height="33" viewBox="0 0 32 33" fill="none" xmlns="http://www.w3.org/2000/svg">
<path d="M11.683 20.0156C11.9222 20.4939 12.5362 20.6393 12.9642 20.3187L15.1438 18.6834V30.5C12.609 30.4494 10.0769 30.1752 7.57668 29.6744C6.73033 29.5015 6.11722 28.7495 6.11719 27.8858V26.2279C6.11719 22.9242 8.01738 19.9446 10.9437 18.5368L11.683 20.0156Z" fill="white"/>
<path fill-rule="evenodd" clip-rule="evenodd" d="M21.0571 18.5385C23.9819 19.9468 25.8819 22.9253 25.8819 26.2279L25.8811 27.8858C25.8811 28.7496 25.2673 29.5016 24.4208 29.6744C21.9221 30.1749 19.3919 30.4491 16.8587 30.5V18.6842L19.0375 20.3187C19.4654 20.6396 20.0802 20.494 20.3194 20.0156L21.0571 18.5385ZM20.2885 23.0786C19.815 23.0787 19.4311 23.4626 19.431 23.936C19.4311 24.4095 19.815 24.7934 20.2885 24.7935H22.0033C22.4768 24.7934 22.8607 24.4095 22.8608 23.936C22.8607 23.4626 22.4768 23.0787 22.0033 23.0786H20.2885Z" fill="white"/>
<path d="M21.1149 11.4671C21.1599 11.7119 21.1844 11.9744 21.1844 12.2559C21.1844 15.0804 18.8266 17.4382 16.0021 17.4382C13.1775 17.4382 10.8189 15.0804 10.8189 12.2559C10.8189 11.9747 10.8435 11.7125 10.8884 11.4679C11.2771 11.7012 11.6907 11.8833 12.0875 12.0231C13.2545 12.4343 14.6504 12.6276 15.9971 12.6277H16.0054C17.3611 12.6276 18.767 12.432 19.9393 12.0147C20.3278 11.8764 20.733 11.6964 21.1149 11.4671Z" fill="white"/>
<path d="M16.0063 8.33206C18.3141 8.33211 20.5582 8.92916 21.5018 9.21546C21.0196 10.6133 18.4989 11.3415 16.0054 11.3415H15.9971C13.5205 11.3415 11.0171 10.6232 10.5107 9.24393C11.352 8.97321 13.5975 8.33212 15.9962 8.33206H16.0063Z" fill="white"/>
<path d="M15.7978 2.53259C15.9301 2.48913 16.0724 2.48914 16.2047 2.53259L23.256 4.85372C23.3597 4.88783 23.4539 4.94718 23.5298 5.02705C23.6057 5.10691 23.661 5.20481 23.6914 5.31175C23.7219 5.41871 23.7261 5.53174 23.704 5.64083C23.6819 5.74978 23.6344 5.85157 23.565 5.93725L21.9514 7.92846C20.9736 7.6251 18.5619 6.9689 16.0063 6.96886H15.9962C13.3679 6.96892 10.9657 7.66338 10.072 7.95526L8.43748 5.93725C8.36812 5.85156 8.32057 5.74979 8.29848 5.64083C8.27639 5.53174 8.28059 5.41871 8.31104 5.31175C8.34149 5.20482 8.39679 5.1069 8.47265 5.02705C8.54856 4.94718 8.64282 4.88784 8.74646 4.85372L15.7978 2.53259Z" fill="white"/>
</svg>
